<svg xmlns="http://www.w3.org/2000/svg" xmlns:xlink="http://www.w3.org/1999/xlink" xmlns:svgjs="http://svgjs.dev/svgjs" version="1.1" width="2000" height="1697" viewBox="0 0 2000 1697">
  <g transform="matrix(1,0,0,1,-0.17539409322068877,0.6870445344129621)">
    <svg xmlns="http://www.w3.org/2000/svg" xmlns:xlink="http://www.w3.org/1999/xlink" viewBox="0 0 291 247" data-background-color="#ffffff" preserveAspectRatio="xMidYMid meet" height="1697" width="2000">
      <g id="tight-bounds" transform="matrix(1,0,0,1,0.02551984056361789,-0.09999999999999432)">
        <svg viewBox="0 0 290.94896031887276 247.2" height="247.2" width="290.94896031887276">
          <g>
          <svg viewBox="0 0 290.94896031887276 247.2" height="247.2" width="290.94896031887276">
            <g>
            <svg viewBox="0 0 395.52 336.04706438147684" height="247.2" width="290.94896031887276">
              <g>
              <svg viewBox="0 0 395.52 336.04706438147684" height="336.04706438147684" width="395.52">
                <g id="textblocktransform">
                  <svg viewBox="0 0 395.52 336.04706438147684" height="336.04706438147684" width="395.52" id="textblock">
                    <g>
                    <rect width="395.52" height="225.72685907384232" fill="none" stroke-width="9.018103199999999" stroke="#ff0000" data-fill-palette-color="none" data-stroke-palette-color="tertiary"/>
                    <rect width="395.52" height="110.32020530763455" y="225.72685907384232" fill="#ff0000" data-fill-palette-color="tertiary"/>
                  </g>
                  <g>
                  <svg viewBox="0 0 395.52 225.72685907384232" height="225.72685907384232" width="395.52">
                    <g transform="matrix(1,0,0,1,23.607599999999998,23.607599999999998)">
                      <svg width="348.3048" viewBox="3.759999990463257 -37.7400016784668 78.0199966430664 39.9900016784668" height="178.5116590738423" data-palette-color="#ff0000">
                        <path d="M35.3-0.15L35.3-0.15 27.88 0.98Q27.1-1.51 26.32-3.98 25.54-6.45 24.8-8.94L24.8-8.94 12.79-8.5 11.28-2 3.76-2Q4.44-10.3 5.18-18.51 5.91-26.71 6.59-34.96L6.59-34.96Q10.11-35.55 13.6-35.94 17.09-36.33 20.65-36.33L20.65-36.33Q25-36.33 29.35-36.18L29.35-36.18Q30.13-31.1 30.88-26.05 31.64-21 32.47-15.92L32.47-15.92Q33.06-11.91 33.76-8.01 34.47-4.1 35.3-0.15ZM13.72-15.33L23.1-15.58Q23.05-16.02 22.85-17.21 22.66-18.41 22.41-19.75 22.17-21.09 21.85-22.19 21.53-23.29 21.24-23.49L21.24-23.49Q21.14-23.54 20.78-23.58 20.41-23.63 20-23.68 19.58-23.73 19.19-23.73 18.8-23.73 18.65-23.73L18.65-23.73Q18.41-23.73 17.99-23.73 17.58-23.73 17.11-23.71 16.65-23.68 16.24-23.58 15.82-23.49 15.67-23.34L15.67-23.34Q15.58-23.29 15.43-22.71 15.28-22.12 15.06-21.26 14.84-20.41 14.62-19.43 14.4-18.46 14.21-17.58 14.01-16.7 13.89-16.06 13.77-15.43 13.72-15.33L13.72-15.33ZM81.78-1.37L81.78 0.83Q80.86 0.78 79.98 0.68L79.98 0.68Q79.25 0.59 78.54 0.54 77.83 0.49 77.49 0.49L77.49 0.49Q75.58 0.49 73.68 0.56 71.77 0.63 69.92 0.83L69.92 0.83Q69.97-1.22 69.99-3.2 70.02-5.18 70.02-7.23L70.02-7.23Q70.02-10.89 69.89-14.5 69.77-18.12 69.68-21.73L69.68-21.73 59.42 1.46Q57.18-4.64 54.61-10.52 52.05-16.41 49.27-22.27L49.27-22.27 50.05 1.86Q49.51 1.86 48.95 1.83 48.39 1.81 47.8 1.81L47.8 1.81Q45.94 1.81 44.16 1.95 42.38 2.1 40.57 2.25L40.57 2.25Q40.82-2.29 41.06-6.79 41.31-11.28 41.31-15.82L41.31-15.82Q41.31-21.14 41.23-26.42 41.16-31.69 41.11-37.01L41.11-37.01Q44.63-37.01 47.97-37.21 51.32-37.4 54.83-37.74L54.83-37.74Q56-33.84 57.25-30 58.49-26.17 59.91-22.36L59.91-22.36Q61.42-25.98 63.35-29.44 65.28-32.91 67.28-36.33L67.28-36.33Q70.6-36.43 73.85-36.52 77.1-36.62 80.42-36.67L80.42-36.67Q80.56-32.28 80.78-27.98 81-23.68 81.2-19.29L81.2-19.29Q81.35-15.82 81.47-12.35 81.59-8.89 81.69-5.47L81.69-5.47 81.78-1.37Z" opacity="1" transform="matrix(1,0,0,1,0,0)" fill="#ff0000" class="wordmark-text-0" data-fill-palette-color="primary" id="text-0"/>
                      </svg>
                    </g>
                  </svg>
                </g>
              </svg>
            </g>
          </svg>
        </g>
        <g/>
      </svg>
    </g>
  </svg>
</g>
<defs/>
</svg>
<rect width="290.94896031887276" height="247.2" fill="none" stroke="none" visibility="hidden"/>
</g>
</svg>
</g>
</svg>